<svg width="83" height="19" viewBox="0 0 83 19" fill="none" xmlns="http://www.w3.org/2000/svg">
<path d="M3.77109 18.7355C3.27509 18.7355 2.80309 18.6075 2.35509 18.3515C1.90709 18.0795 1.54709 17.6635 1.27509 17.1035C1.00309 16.5435 0.86709 15.8235 0.86709 14.9435C0.86709 13.8555 1.07509 12.8315 1.49109 11.8715C1.90709 10.9115 2.45109 10.0635 3.12309 9.3275C3.79509 8.5915 4.53109 8.0155 5.33109 7.5995C6.14709 7.1675 6.94709 6.9515 7.73109 6.9515C8.03509 6.9515 8.37909 6.9995 8.76309 7.0955C9.14709 7.1755 9.54709 7.3195 9.96309 7.5275C10.2991 7.4795 10.6431 7.4315 10.9951 7.3835C11.3631 7.3355 11.7391 7.2795 12.1231 7.2155L12.1951 7.3115C12.0031 7.9835 11.8351 8.6235 11.6911 9.2315C11.5471 9.8235 11.4031 10.4315 11.2591 11.0555L10.1551 15.8075C10.1391 15.9195 10.1071 16.0635 10.0591 16.2395C10.0111 16.4155 9.98709 16.5835 9.98709 16.7435C9.98709 16.8875 10.0191 17.0075 10.0831 17.1035C10.1471 17.1995 10.2591 17.2475 10.4191 17.2475C10.6911 17.2475 11.0351 17.1035 11.4511 16.8155C11.8671 16.5275 12.2431 16.1755 12.5791 15.7595C12.7871 15.9035 12.9711 16.0635 13.1311 16.2395C12.5871 16.9595 12.0031 17.5595 11.3791 18.0395C10.7551 18.5195 10.0511 18.7595 9.26709 18.7595C8.67509 18.7595 8.25109 18.6155 7.99509 18.3275C7.73909 18.0235 7.61109 17.6475 7.61109 17.1995C7.61109 16.7675 7.69909 16.2715 7.87509 15.7115H7.75509C7.16309 16.7355 6.52309 17.4955 5.83509 17.9915C5.16309 18.4875 4.47509 18.7355 3.77109 18.7355ZM9.33909 9.0395C9.00309 8.7355 8.65109 8.4955 8.28309 8.3195C7.91509 8.1275 7.53909 8.0315 7.15509 8.0315C6.56309 8.0315 6.03509 8.2475 5.57109 8.6795C5.10709 9.1115 4.71509 9.6715 4.39509 10.3595C4.07509 11.0315 3.83509 11.7595 3.67509 12.5435C3.51509 13.3115 3.43509 14.0475 3.43509 14.7515C3.43509 15.7115 3.56309 16.3675 3.81909 16.7195C4.07509 17.0555 4.37909 17.2235 4.73109 17.2235C5.14709 17.2235 5.60309 17.0235 6.09909 16.6235C6.61109 16.2075 7.10709 15.5515 7.58709 14.6555C8.08309 13.7435 8.50709 12.5435 8.85909 11.0555L9.33909 9.0395ZM25.4425 18.5435C25.1545 18.5435 24.7785 18.5355 24.3145 18.5195C23.8665 18.5035 23.4025 18.4875 22.9225 18.4715C22.4425 18.4555 22.0025 18.4475 21.6025 18.4475C21.3145 18.4475 20.9385 18.4555 20.4745 18.4715C20.0105 18.4715 19.5465 18.4715 19.0825 18.4715C18.6345 18.4875 18.2745 18.4955 18.0025 18.4955C18.0025 18.3835 18.0105 18.2555 18.0265 18.1115C18.0425 17.9675 18.0745 17.8395 18.1225 17.7275C18.8105 17.6475 19.3065 17.5755 19.6105 17.5115C19.9305 17.4475 20.1545 17.3035 20.2825 17.0795C20.4105 16.8395 20.5225 16.4475 20.6185 15.9035L22.8265 4.5275C22.8905 4.2235 22.9385 3.9755 22.9705 3.7835C23.0025 3.5915 23.0185 3.4235 23.0185 3.2795C23.0185 2.9115 22.8745 2.6955 22.5865 2.6315C22.3145 2.5515 21.7625 2.4795 20.9305 2.4155C20.9625 2.1595 21.0105 1.9035 21.0745 1.6475C21.3785 1.6475 21.7465 1.6555 22.1785 1.6715C22.6105 1.6715 23.0425 1.6795 23.4745 1.6955C23.9065 1.6955 24.2665 1.6955 24.5545 1.6955C24.7625 1.6955 25.0665 1.6955 25.4665 1.6955C25.8825 1.6795 26.2825 1.6715 26.6665 1.6715C27.0505 1.6715 27.3225 1.6715 27.4825 1.6715C28.1385 1.6715 28.7785 1.7275 29.4025 1.8395C30.0425 1.9515 30.6105 2.1435 31.1065 2.4155C31.6185 2.6715 32.0265 3.0395 32.3305 3.5195C32.6345 3.9835 32.7865 4.5835 32.7865 5.3195C32.7865 6.2315 32.5625 6.9835 32.1145 7.5755C31.6665 8.1515 31.0985 8.6075 30.4105 8.9435C29.7225 9.2635 29.0105 9.5115 28.2745 9.6875V9.7355C28.9145 9.8155 29.5305 9.9995 30.1225 10.2875C30.7305 10.5755 31.2265 10.9995 31.6105 11.5595C32.0105 12.1195 32.2105 12.8555 32.2105 13.7675C32.2105 14.6955 32.0025 15.4715 31.5865 16.0955C31.1705 16.7035 30.6265 17.1915 29.9545 17.5595C29.2825 17.9115 28.5465 18.1675 27.7465 18.3275C26.9625 18.4715 26.1945 18.5435 25.4425 18.5435ZM24.3385 10.3595L22.9945 17.3435C23.3625 17.4235 23.7785 17.4875 24.2425 17.5355C24.7065 17.5675 25.0905 17.5835 25.3945 17.5835C26.6585 17.5835 27.6345 17.2315 28.3225 16.5275C29.0265 15.8075 29.3785 14.8395 29.3785 13.6235C29.3785 12.7755 29.2105 12.1115 28.8745 11.6315C28.5545 11.1515 28.0985 10.8155 27.5065 10.6235C26.9305 10.4155 26.2585 10.3115 25.4905 10.3115C25.3785 10.3115 25.2105 10.3115 24.9865 10.3115C24.7625 10.3115 24.5465 10.3275 24.3385 10.3595ZM25.8265 2.6795L24.5305 9.3275C24.7545 9.3435 24.9865 9.3515 25.2265 9.3515C25.4665 9.3515 25.6505 9.3515 25.7785 9.3515C27.1705 9.3515 28.2345 8.9995 28.9705 8.2955C29.7065 7.5915 30.0745 6.6635 30.0745 5.5115C30.0745 4.4235 29.7785 3.6795 29.1865 3.2795C28.5945 2.8635 27.8665 2.6555 27.0025 2.6555C26.8905 2.6555 26.7305 2.6555 26.5225 2.6555C26.3145 2.6555 26.0825 2.6635 25.8265 2.6795ZM45.1895 11.6555C45.1895 12.4715 45.0535 13.2955 44.7815 14.1275C44.5255 14.9595 44.1335 15.7275 43.6055 16.4315C43.0775 17.1195 42.4215 17.6795 41.6375 18.1115C40.8535 18.5435 39.9495 18.7595 38.9255 18.7595C38.0615 18.7595 37.3335 18.6075 36.7415 18.3035C36.1655 17.9995 35.7015 17.6075 35.3495 17.1275C34.9975 16.6475 34.7415 16.1275 34.5815 15.5675C34.4375 14.9915 34.3655 14.4395 34.3655 13.9115C34.3655 13.2235 34.4855 12.4795 34.7255 11.6795C34.9815 10.8795 35.3655 10.1195 35.8775 9.3995C36.3895 8.6795 37.0455 8.0955 37.8455 7.6475C38.6455 7.1835 39.5975 6.9515 40.7015 6.9515C41.7415 6.9515 42.5895 7.1675 43.2455 7.5995C43.9175 8.0155 44.4055 8.5835 44.7095 9.3035C45.0295 10.0075 45.1895 10.7915 45.1895 11.6555ZM42.6455 11.2715C42.6455 10.2795 42.4855 9.4635 42.1655 8.8235C41.8615 8.1675 41.3415 7.8395 40.6055 7.8395C40.0295 7.8395 39.5095 8.0315 39.0455 8.4155C38.5975 8.7995 38.2135 9.3115 37.8935 9.9515C37.5735 10.5915 37.3255 11.2955 37.1495 12.0635C36.9895 12.8155 36.9095 13.5755 36.9095 14.3435C36.9095 15.3355 37.0695 16.1755 37.3895 16.8635C37.7255 17.5355 38.2695 17.8715 39.0215 17.8715C39.6135 17.8715 40.1335 17.6715 40.5815 17.2715C41.0295 16.8715 41.4055 16.3435 41.7095 15.6875C42.0135 15.0315 42.2455 14.3195 42.4055 13.5515C42.5655 12.7675 42.6455 12.0075 42.6455 11.2715ZM49.6617 18.7355C49.1657 18.7355 48.6937 18.6075 48.2457 18.3515C47.7977 18.0795 47.4377 17.6635 47.1657 17.1035C46.8937 16.5435 46.7577 15.8235 46.7577 14.9435C46.7577 13.8555 46.9657 12.8315 47.3817 11.8715C47.7977 10.9115 48.3417 10.0635 49.0137 9.3275C49.6857 8.5915 50.4217 8.0155 51.2217 7.5995C52.0377 7.1675 52.8377 6.9515 53.6217 6.9515C53.9257 6.9515 54.2697 6.9995 54.6537 7.0955C55.0377 7.1755 55.4377 7.3195 55.8537 7.5275C56.1897 7.4795 56.5337 7.4315 56.8857 7.3835C57.2537 7.3355 57.6297 7.2795 58.0137 7.2155L58.0857 7.3115C57.8937 7.9835 57.7257 8.6235 57.5817 9.2315C57.4377 9.8235 57.2937 10.4315 57.1497 11.0555L56.0457 15.8075C56.0297 15.9195 55.9977 16.0635 55.9497 16.2395C55.9017 16.4155 55.8777 16.5835 55.8777 16.7435C55.8777 16.8875 55.9097 17.0075 55.9737 17.1035C56.0377 17.1995 56.1497 17.2475 56.3097 17.2475C56.5817 17.2475 56.9257 17.1035 57.3417 16.8155C57.7577 16.5275 58.1337 16.1755 58.4697 15.7595C58.6777 15.9035 58.8617 16.0635 59.0217 16.2395C58.4777 16.9595 57.8937 17.5595 57.2697 18.0395C56.6457 18.5195 55.9417 18.7595 55.1577 18.7595C54.5657 18.7595 54.1417 18.6155 53.8857 18.3275C53.6297 18.0235 53.5017 17.6475 53.5017 17.1995C53.5017 16.7675 53.5897 16.2715 53.7657 15.7115H53.6457C53.0537 16.7355 52.4137 17.4955 51.7257 17.9915C51.0537 18.4875 50.3657 18.7355 49.6617 18.7355ZM55.2297 9.0395C54.8937 8.7355 54.5417 8.4955 54.1737 8.3195C53.8057 8.1275 53.4297 8.0315 53.0457 8.0315C52.4537 8.0315 51.9257 8.2475 51.4617 8.6795C50.9977 9.1115 50.6057 9.6715 50.2857 10.3595C49.9657 11.0315 49.7257 11.7595 49.5657 12.5435C49.4057 13.3115 49.3257 14.0475 49.3257 14.7515C49.3257 15.7115 49.4537 16.3675 49.7097 16.7195C49.9657 17.0555 50.2697 17.2235 50.6217 17.2235C51.0377 17.2235 51.4937 17.0235 51.9897 16.6235C52.5017 16.2075 52.9977 15.5515 53.4777 14.6555C53.9737 13.7435 54.3977 12.5435 54.7497 11.0555L55.2297 9.0395ZM62.8325 18.4715H60.4325L62.4005 9.9515C62.5125 9.4875 62.5685 9.1835 62.5685 9.0395C62.5685 8.6555 62.4245 8.4635 62.1365 8.4635C61.9125 8.4635 61.6165 8.5915 61.2485 8.8475C60.8965 9.0875 60.5445 9.3915 60.1925 9.7595C60.0805 9.6795 59.9765 9.5995 59.8805 9.5195C59.8005 9.4395 59.7205 9.3515 59.6405 9.2555C60.2805 8.5035 60.9445 7.9435 61.6325 7.5755C62.3205 7.1915 62.9605 6.9995 63.5525 6.9995C64.0805 6.9995 64.4325 7.1275 64.6085 7.3835C64.7845 7.6235 64.8725 7.9115 64.8725 8.2475C64.8725 8.4555 64.8405 8.7035 64.7765 8.9915C64.7125 9.2635 64.5845 9.7275 64.3925 10.3835L63.6245 12.8555L63.7685 12.8795C64.6005 10.8795 65.4165 9.3915 66.2165 8.4155C67.0165 7.4395 67.8805 6.9515 68.8085 6.9515C69.3685 6.9515 69.7605 7.0955 69.9845 7.3835C70.2245 7.6715 70.3445 7.9835 70.3445 8.3195C70.3445 8.7195 70.2165 9.0315 69.9605 9.2555C69.7045 9.4795 69.4005 9.5915 69.0485 9.5915C68.7925 9.5915 68.5205 9.5275 68.2325 9.3995C67.9445 9.2555 67.7045 9.0315 67.5125 8.7275C67.0165 9.0475 66.4805 9.6315 65.9045 10.4795C65.3285 11.3115 64.7685 12.3995 64.2245 13.7435C63.6965 15.0715 63.2325 16.6475 62.8325 18.4715ZM76.9293 15.6635H76.8093C76.0573 16.8315 75.3053 17.6395 74.5533 18.0875C73.8013 18.5195 73.1133 18.7355 72.4893 18.7355C71.7213 18.7355 71.0413 18.4315 70.4493 17.8235C69.8733 17.2155 69.5853 16.2555 69.5853 14.9435C69.5853 13.9035 69.7773 12.9035 70.1613 11.9435C70.5613 10.9835 71.0893 10.1275 71.7453 9.3755C72.4173 8.6235 73.1613 8.0315 73.9773 7.5995C74.7933 7.1675 75.6173 6.9515 76.4493 6.9515C76.7693 6.9515 77.0973 6.9915 77.4333 7.0715C77.7853 7.1355 78.1293 7.2475 78.4653 7.4075L79.2333 3.6635C79.2813 3.4395 79.3213 3.2315 79.3533 3.0395C79.3853 2.8475 79.4013 2.6955 79.4013 2.5835C79.4013 2.2795 79.2573 2.0955 78.9693 2.0315C78.6973 1.9515 78.1773 1.9035 77.4093 1.8875C77.3933 1.7755 77.3773 1.6715 77.3613 1.5755C77.3613 1.4635 77.3693 1.3515 77.3853 1.2395C78.2493 1.1755 79.0893 1.0875 79.9053 0.975496C80.7373 0.847496 81.4493 0.663496 82.0413 0.423496L82.3533 0.591495C82.1933 1.1835 82.0253 1.8315 81.8493 2.5355C81.6893 3.2395 81.5213 4.0315 81.3453 4.9115L79.1133 15.8075C79.0973 15.9195 79.0653 16.0715 79.0173 16.2635C78.9853 16.4395 78.9693 16.5995 78.9693 16.7435C78.9693 17.0955 79.1133 17.2715 79.4013 17.2715C79.6733 17.2715 80.0173 17.1275 80.4333 16.8395C80.8493 16.5515 81.2253 16.1995 81.5613 15.7835C81.7693 15.9275 81.9533 16.0875 82.1133 16.2635C81.5693 16.9835 80.9773 17.5835 80.3373 18.0635C79.7133 18.5435 79.0173 18.7835 78.2493 18.7835C77.6733 18.7835 77.2653 18.6475 77.0253 18.3755C76.7853 18.0875 76.6653 17.7115 76.6653 17.2475C76.6653 17.0235 76.6893 16.7915 76.7373 16.5515C76.7853 16.3115 76.8493 16.0155 76.9293 15.6635ZM77.4093 12.4955L78.1053 9.0635C77.6413 8.6635 77.2093 8.3915 76.8093 8.2475C76.4253 8.1035 76.0973 8.0315 75.8253 8.0315C75.2333 8.0315 74.7053 8.2475 74.2413 8.6795C73.7773 9.1115 73.3933 9.6715 73.0893 10.3595C72.7853 11.0315 72.5533 11.7595 72.3933 12.5435C72.2333 13.3275 72.1533 14.0715 72.1533 14.7755C72.1533 15.6875 72.2733 16.3275 72.5133 16.6955C72.7693 17.0475 73.1053 17.2235 73.5213 17.2235C74.0493 17.2235 74.5773 16.9995 75.1053 16.5515C75.6333 16.1035 76.1053 15.5195 76.5213 14.7995C76.9373 14.0795 77.2333 13.3115 77.4093 12.4955Z" fill="white"/>
</svg>
